<svg xmlns="http://www.w3.org/2000/svg">
    <symbol x="0px" y="0px" viewBox="0 0 511.808 511.808" class="icon icon-cart" id="icon-cart">
        <g>
            <g>
                <path d="M477.511,491.424l-26.48-348.832c-0.624-8.336-7.584-14.784-15.952-14.784H76.391c-8.368,0-15.328,6.448-15.952,14.8
                    l-26.704,352c-0.336,4.432,1.2,8.816,4.224,12.08c3.024,3.264,7.28,5.12,11.728,5.12h412.112c0.096,0,0.208,0,0.32,0
                    c8.832,0,16-7.168,16-16.016C478.119,494.288,477.911,492.816,477.511,491.424z M66.935,479.808l24.288-320h329.024l24.288,320
                    H66.935z"/>
            </g>
        </g>
        <g>
            <g>
                <path d="M255.735,0c-70.576,0-128,57.44-128,128.032v63.776c0,8.832,7.168,16,16,16c8.832,0,16-7.168,16-16v-63.776
                    c0-52.96,43.056-96.032,96-96.032c52.944,0,96,43.072,96,96.032v63.776c0,8.832,7.168,16,16,16c8.832,0,16-7.168,16-16v-63.776
                    C383.735,57.44,326.311,0,255.735,0z"/>
            </g></g><g></g><g></g><g></g><g></g><g></g><g></g><g></g><g></g><g></g><g></g><g></g><g></g><g></g><g></g><g></g>
    </symbol>
    <symbol x="0px" y="0px" viewBox="0 0 1024 1024" class="icon icon-cart" id="icon-cart1">
        <path class="path1" d="M409.6 1024c-56.464 0-102.4-45.936-102.4-102.4s45.936-102.4 102.4-102.4 102.4 45.936 102.4 102.4-45.936 102.4-102.4 102.4zM409.6 870.4c-28.232 0-51.2 22.968-51.2 51.2s22.968 51.2 51.2 51.2 51.2-22.968 51.2-51.2-22.968-51.2-51.2-51.2z"></path><path class="path2" d="M768 1024c-56.464 0-102.4-45.936-102.4-102.4s45.936-102.4 102.4-102.4 102.4 45.936 102.4 102.4-45.936 102.4-102.4 102.4zM768 870.4c-28.232 0-51.2 22.968-51.2 51.2s22.968 51.2 51.2 51.2 51.2-22.968 51.2-51.2-22.968-51.2-51.2-51.2z"></path><path class="path3" d="M898.021 228.688c-12.859-15.181-32.258-23.888-53.221-23.888h-626.846l-5.085-30.506c-6.72-40.315-43.998-71.894-84.869-71.894h-51.2c-14.138 0-25.6 11.462-25.6 25.6s11.462 25.6 25.6 25.6h51.2c15.722 0 31.781 13.603 34.366 29.112l85.566 513.395c6.718 40.314 43.997 71.893 84.867 71.893h512c14.139 0 25.6-11.461 25.6-25.6s-11.461-25.6-25.6-25.6h-512c-15.722 0-31.781-13.603-34.366-29.11l-12.63-75.784 510.206-44.366c39.69-3.451 75.907-36.938 82.458-76.234l34.366-206.194c3.448-20.677-1.952-41.243-14.813-56.424zM862.331 276.694l-34.366 206.194c-2.699 16.186-20.043 32.221-36.39 33.645l-514.214 44.714-50.874-305.246h618.314c5.968 0 10.995 2.054 14.155 5.782 3.157 3.73 4.357 9.024 3.376 14.912z"></path>
    </symbol>
	<symbol viewBox="0 0 1024 1024" class="icon icon-heart" id="icon-heart">
	    <path class="path1" d="M486.4 972.8c-4.283 0-8.566-1.074-12.434-3.222-4.808-2.67-119.088-66.624-235.122-171.376-68.643-61.97-123.467-125.363-162.944-188.418-50.365-80.443-75.901-160.715-75.901-238.584 0-148.218 120.582-268.8 268.8-268.8 50.173 0 103.462 18.805 150.051 52.952 27.251 19.973 50.442 44.043 67.549 69.606 17.107-25.565 40.299-49.634 67.55-69.606 46.589-34.147 99.878-52.952 150.050-52.952 148.218 0 268.8 120.582 268.8 268.8 0 77.869-25.538 158.141-75.901 238.584-39.478 63.054-94.301 126.446-162.944 188.418-116.034 104.754-230.314 168.706-235.122 171.376-3.867 2.149-8.15 3.222-12.434 3.222zM268.8 153.6c-119.986 0-217.6 97.614-217.6 217.6 0 155.624 120.302 297.077 221.224 388.338 90.131 81.504 181.44 138.658 213.976 158.042 32.536-19.384 123.845-76.538 213.976-158.042 100.922-91.261 221.224-232.714 221.224-388.338 0-119.986-97.616-217.6-217.6-217.6-87.187 0-171.856 71.725-193.314 136.096-3.485 10.453-13.267 17.504-24.286 17.504s-20.802-7.051-24.286-17.504c-21.456-64.371-106.125-136.096-193.314-136.096z"></path></symbol>
    <symbol viewBox="0 0 1024 1024" class="icon icon-user" id="icon-user">
        <path class="path1" d="M486.4 563.2c-155.275 0-281.6-126.325-281.6-281.6s126.325-281.6 281.6-281.6 281.6 126.325 281.6 281.6-126.325 281.6-281.6 281.6zM486.4 51.2c-127.043 0-230.4 103.357-230.4 230.4s103.357 230.4 230.4 230.4c127.042 0 230.4-103.357 230.4-230.4s-103.358-230.4-230.4-230.4z"></path>
        <path class="path2" d="M896 1024h-819.2c-42.347 0-76.8-34.451-76.8-76.8 0-3.485 0.712-86.285 62.72-168.96 36.094-48.126 85.514-86.36 146.883-113.634 74.957-33.314 168.085-50.206 276.797-50.206 108.71 0 201.838 16.893 276.797 50.206 61.37 27.275 110.789 65.507 146.883 113.634 62.008 82.675 62.72 165.475 62.72 168.96 0 42.349-34.451 76.8-76.8 76.8zM486.4 665.6c-178.52 0-310.267 48.789-381 141.093-53.011 69.174-54.195 139.904-54.2 140.61 0 14.013 11.485 25.498 25.6 25.498h819.2c14.115 0 25.6-11.485 25.6-25.6-0.006-0.603-1.189-71.333-54.198-140.507-70.734-92.304-202.483-141.093-381.002-141.093z"></path>
    </symbol>
    <symbol viewBox="0 0 1024 1024" class="icon icon-search" id="icon-search">
        <path class="path1" d="M966.070 981.101l-304.302-331.965c68.573-71.754 106.232-165.549 106.232-265.136 0-102.57-39.942-199-112.47-271.53s-168.96-112.47-271.53-112.47-199 39.942-271.53 112.47-112.47 168.96-112.47 271.53 39.942 199.002 112.47 271.53 168.96 112.47 271.53 112.47c88.362 0 172.152-29.667 240.043-84.248l304.285 331.947c5.050 5.507 11.954 8.301 18.878 8.301 6.179 0 12.378-2.226 17.293-6.728 10.421-9.555 11.126-25.749 1.571-36.171zM51.2 384c0-183.506 149.294-332.8 332.8-332.8s332.8 149.294 332.8 332.8-149.294 332.8-332.8 332.8-332.8-149.294-332.8-332.8z"></path></symbol>
    <symbol x="0px" y="0px" viewBox="0 0 612 612" class="icon icon-close" id="icon-close">
        <g><g><g><polygon points="612,36.004 576.521,0.603 306,270.608 35.478,0.603 0,36.004 270.522,306.011 0,575.997 35.478,611.397 306,341.411 576.521,611.397 612,575.997 341.459,306.011 "/>
        </g></g></g><g></g><g></g><g></g><g></g><g></g><g></g><g></g><g></g><g></g><g></g><g></g><g></g><g></g><g></g><g></g></symbol>
    <symbol x="0px" y="0px" viewBox="0 0 482.6 482.6" class="icon icon-phone" id="icon-phone">
        <g><path d="M98.339,320.8c47.6,56.9,104.9,101.7,170.3,133.4c24.9,11.8,58.2,25.8,95.3,28.2c2.3,0.1,4.5,0.2,6.8,0.2
                c24.9,0,44.9-8.6,61.2-26.3c0.1-0.1,0.3-0.3,0.4-0.5c5.8-7,12.4-13.3,19.3-20c4.7-4.5,9.5-9.2,14.1-14
                c21.3-22.2,21.3-50.4-0.2-71.9l-60.1-60.1c-10.2-10.6-22.4-16.2-35.2-16.2c-12.8,0-25.1,5.6-35.6,16.1l-35.8,35.8
                c-3.3-1.9-6.7-3.6-9.9-5.2c-4-2-7.7-3.9-11-6c-32.6-20.7-62.2-47.7-90.5-82.4c-14.3-18.1-23.9-33.3-30.6-48.8
                c9.4-8.5,18.2-17.4,26.7-26.1c3-3.1,6.1-6.2,9.2-9.3c10.8-10.8,16.6-23.3,16.6-36s-5.7-25.2-16.6-36l-29.8-29.8
                c-3.5-3.5-6.8-6.9-10.2-10.4c-6.6-6.8-13.5-13.8-20.3-20.1c-10.3-10.1-22.4-15.4-35.2-15.4c-12.7,0-24.9,5.3-35.6,15.5l-37.4,37.4
                c-13.6,13.6-21.3,30.1-22.9,49.2c-1.9,23.9,2.5,49.3,13.9,80C32.739,229.6,59.139,273.7,98.339,320.8z M25.739,104.2
                c1.2-13.3,6.3-24.4,15.9-34l37.2-37.2c5.8-5.6,12.2-8.5,18.4-8.5c6.1,0,12.3,2.9,18,8.7c6.7,6.2,13,12.7,19.8,19.6
                c3.4,3.5,6.9,7,10.4,10.6l29.8,29.8c6.2,6.2,9.4,12.5,9.4,18.7s-3.2,12.5-9.4,18.7c-3.1,3.1-6.2,6.3-9.3,9.4
                c-9.3,9.4-18,18.3-27.6,26.8c-0.2,0.2-0.3,0.3-0.5,0.5c-8.3,8.3-7,16.2-5,22.2c0.1,0.3,0.2,0.5,0.3,0.8
                c7.7,18.5,18.4,36.1,35.1,57.1c30,37,61.6,65.7,96.4,87.8c4.3,2.8,8.9,5,13.2,7.2c4,2,7.7,3.9,11,6c0.4,0.2,0.7,0.4,1.1,0.6
                c3.3,1.7,6.5,2.5,9.7,2.5c8,0,13.2-5.1,14.9-6.8l37.4-37.4c5.8-5.8,12.1-8.9,18.3-8.9c7.6,0,13.8,4.7,17.7,8.9l60.3,60.2
                c12,12,11.9,25-0.3,37.7c-4.2,4.5-8.6,8.8-13.3,13.3c-7,6.8-14.3,13.8-20.9,21.7c-11.5,12.4-25.2,18.2-42.9,18.2
                c-1.7,0-3.5-0.1-5.2-0.2c-32.8-2.1-63.3-14.9-86.2-25.8c-62.2-30.1-116.8-72.8-162.1-127c-37.3-44.9-62.4-86.7-79-131.5
                C28.039,146.4,24.139,124.3,25.739,104.2z"/>
        </g><g></g><g></g><g></g><g></g><g></g><g></g><g></g><g></g><g></g><g></g><g></g><g></g><g></g><g></g><g></g></symbol>
    <symbol x="0px" y="0px" viewBox="0 0 512 512" class="icon icon-email" id="icon-email">
        <g>
            <g>
                <g>
                    <path d="M486.4,59.733H25.6c-14.138,0-25.6,11.461-25.6,25.6v341.333c0,14.138,11.461,25.6,25.6,25.6h460.8
                        c14.138,0,25.6-11.461,25.6-25.6V85.333C512,71.195,500.539,59.733,486.4,59.733z M494.933,426.667
                        c0,4.713-3.82,8.533-8.533,8.533H25.6c-4.713,0-8.533-3.82-8.533-8.533V85.333c0-4.713,3.82-8.533,8.533-8.533h460.8
                        c4.713,0,8.533,3.82,8.533,8.533V426.667z"/>
                    <path d="M470.076,93.898c-2.255-0.197-4.496,0.51-6.229,1.966L266.982,261.239c-6.349,5.337-15.616,5.337-21.965,0L48.154,95.863
                        c-2.335-1.96-5.539-2.526-8.404-1.484c-2.865,1.042-4.957,3.534-5.487,6.537s0.582,6.06,2.917,8.02l196.864,165.367
                        c12.688,10.683,31.224,10.683,43.913,0L474.82,108.937c1.734-1.455,2.818-3.539,3.015-5.794c0.197-2.255-0.51-4.496-1.966-6.229
                        C474.415,95.179,472.331,94.095,470.076,93.898z"/>
                    <path d="M164.124,273.13c-3.021-0.674-6.169,0.34-8.229,2.65l-119.467,128c-2.162,2.214-2.956,5.426-2.074,8.392
                        c0.882,2.967,3.301,5.223,6.321,5.897c3.021,0.674,6.169-0.34,8.229-2.65l119.467-128c2.162-2.214,2.956-5.426,2.074-8.392
                        C169.563,276.061,167.145,273.804,164.124,273.13z"/>
                    <path d="M356.105,275.78c-2.059-2.31-5.208-3.324-8.229-2.65c-3.021,0.674-5.439,2.931-6.321,5.897
                        c-0.882,2.967-0.088,6.178,2.074,8.392l119.467,128c3.24,3.318,8.536,3.442,11.927,0.278c3.391-3.164,3.635-8.456,0.549-11.918
                        L356.105,275.78z"/>
                </g>
            </g></g><g></g><g></g><g></g><g></g><g></g><g></g><g></g><g></g><g></g><g></g><g></g><g></g><g></g><g></g><g></g>
    </symbol>
	<symbol viewBox="0 0 551.13 551.13" class="icon icon-chevron-left" id="icon-chevron-left">
		<path d="m189.451 275.565 223.897-223.897v-51.668l-275.565 275.565 275.565 275.565v-51.668z"></path>
	</symbol>
    <symbol viewBox="0 0 551.13 551.13" class="icon icon-chevron-right" id="icon-chevron-right">
        <path d="m361.679 275.565-223.896 223.897v51.668l275.565-275.565-275.565-275.565v51.668z"></path>
    </symbol>
    <symbol viewBox="0 0 551.13 551.13" class="icon icon-chevron-down" id="icon-chevron-down">
        <path d="m275.565 361.679-223.897-223.896h-51.668l275.565 275.565 275.565-275.565h-51.668z"/>
    </symbol>
    <symbol viewBox="0 0 551.13 551.13" class="icon icon-chevron-up" id="icon-chevron-up">
        <path d="m275.565 189.451 223.897 223.897h51.668l-275.565-275.565-275.565 275.565h51.668z"/>
    </symbol>
    <symbol class="icon icon-saletag" id="icon-saletag">
        <path d="M10 3a1 1 0 1 1 0-2 1 1 0 0 1 0 2zm0-3H7a1 1 0 0 0-.71.29l-6 6a1 1 0 0 0 0 1.42l4 4a1 1 0 0 0 1.42 0c.19-.2 5.8-5.81 6-6A1 1 0 0 0 12 5V2a2 2 0 0 0-2-2z" fill="#231F20"/>
    </symbol>
    <symbol viewBox="0 0 341.4 341.4" class="icon icon-plus" id="icon-plus">
        <g><g><polygon points="192,149.4 192,0 149.4,0 149.4,149.4 0,149.4 0,192 149.4,192 149.4,341.4 192,341.4 192,192 341.4,192 
                341.4,149.4 "/></g></g><g></g><g></g><g></g><g></g><g></g><g></g><g></g><g></g><g></g><g></g><g></g><g></g><g></g><g></g><g></g>
    </symbol>
    <symbol viewBox="0 0 341.333 341.333" class="icon icon-minus" id="icon-minus">
        <g><g><rect y="149.333" width="341.333" height="42.667"/></g></g><g></g><g></g><g></g><g></g><g></g><g></g><g></g><g></g><g></g><g></g><g></g><g></g><g></g><g></g><g></g>
    </symbol>
    <symbol viewBox="0 0 48 48" class="icon icon-sidebar" id="icon-sidebar">
        <g>
            <path d="M6,48c-0.552,0-1-0.447-1-1v-7c0-0.553,0.448-1,1-1s1,0.447,1,1v7C7,47.553,6.552,48,6,48z"></path>
            <path d="M6,31c-0.552,0-1-0.447-1-1V1c0-0.553,0.448-1,1-1s1,0.447,1,1v29C7,30.553,6.552,31,6,31z"></path>
            <g>
                <path d="M6,41c-3.309,0-6-2.691-6-6s2.691-6,6-6s6,2.691,6,6S9.309,41,6,41z M6,31c-2.206,0-4,1.794-4,4s1.794,4,4,4s4-1.794,4-4 S8.206,31,6,31z"></path>
                <path d="M42,48c-0.552,0-1-0.447-1-1V26c0-0.553,0.448-1,1-1s1,0.447,1,1v21C43,47.553,42.552,48,42,48z"></path>
                <path d="M42,17c-0.552,0-1-0.447-1-1V1c0-0.553,0.448-1,1-1s1,0.447,1,1v15C43,16.553,42.552,17,42,17z"></path>
                <path d="M42,27c-3.309,0-6-2.691-6-6s2.691-6,6-6s6,2.691,6,6S45.309,27,42,27z M42,17c-2.206,0-4,1.794-4,4s1.794,4,4,4 s4-1.794,4-4S44.206,17,42,17z"></path>
                <path d="M24,48c-0.552,0-1-0.447-1-1V21c0-0.553,0.448-1,1-1s1,0.447,1,1v26C25,47.553,24.552,48,24,48z"></path>
                <path d="M24,12c-0.552,0-1-0.447-1-1V1c0-0.553,0.448-1,1-1s1,0.447,1,1v10C25,11.553,24.552,12,24,12z"></path>
                <path d="M24,22c-3.309,0-6-2.691-6-6s2.691-6,6-6c3.309,0,6,2.691,6,6S27.309,22,24,22z M24,12c-2.206,0-4,1.794-4,4s1.794,4,4,4 s4-1.794,4-4S26.206,12,24,12z"></path>
            </g>
        </g>
    </symbol>
    <symbol viewBox="0 0 14 14" class="icon icon-error" id="icon-error">
        <g fill="none" fill-rule="evenodd"><path d="M7 0a7 7 0 0 1 7 7 7 7 0 1 1-7-7z"/><path class="icon-error__symbol" d="M6.328 8.396l-.252-5.4h1.836l-.24 5.4H6.328zM6.04 10.16c0-.528.432-.972.96-.972s.972.444.972.972c0 .516-.444.96-.972.96a.97.97 0 0 1-.96-.96z" fill-rule="nonzero"/></g>
    </symbol>
    <symbol viewBox="0 0 512 512" x="0px" y="0px" class="icon icon-messenger" id="icon-messenger">
    <g>
        <g>
            <path d="M256,0C114.624,0,0,106.112,0,237.024c0,74.592,37.216,141.12,95.392,184.576V512l87.168-47.84
                c23.264,6.432,47.904,9.92,73.44,9.92c141.376,0,256-106.112,256-237.024S397.376,0,256,0z M281.44,319.2l-65.184-69.536
                L89.056,319.2l139.936-148.544l66.784,69.536l125.6-69.536L281.44,319.2z"/></g></g><g></g><g></g><g></g><g></g><g></g><g></g><g></g><g></g><g></g><g></g><g></g><g></g><g></g><g></g><g></g>
    </symbol>
    <symbol viewBox="0 0 301.219 301.219" x="0px" y="0px" class="icon icon-sort" id="icon-sort">
        <g>
        <path d="M159.365,23.736v-10c0-5.523-4.477-10-10-10H10c-5.523,0-10,4.477-10,10v10c0,5.523,4.477,10,10,10h139.365
            C154.888,33.736,159.365,29.259,159.365,23.736z"/>
        <path d="M130.586,66.736H10c-5.523,0-10,4.477-10,10v10c0,5.523,4.477,10,10,10h120.586c5.523,0,10-4.477,10-10v-10
            C140.586,71.213,136.109,66.736,130.586,66.736z"/>
        <path d="M111.805,129.736H10c-5.523,0-10,4.477-10,10v10c0,5.523,4.477,10,10,10h101.805c5.523,0,10-4.477,10-10v-10
            C121.805,134.213,117.328,129.736,111.805,129.736z"/>
        <path d="M93.025,199.736H10c-5.523,0-10,4.477-10,10v10c0,5.523,4.477,10,10,10h83.025c5.522,0,10-4.477,10-10v-10
            C103.025,204.213,98.548,199.736,93.025,199.736z"/>
        <path d="M74.244,262.736H10c-5.523,0-10,4.477-10,10v10c0,5.523,4.477,10,10,10h64.244c5.522,0,10-4.477,10-10v-10
            C84.244,267.213,79.767,262.736,74.244,262.736z"/>
        <path d="M298.29,216.877l-7.071-7.071c-1.875-1.875-4.419-2.929-7.071-2.929c-2.652,0-5.196,1.054-7.072,2.929l-34.393,34.393
            V18.736c0-5.523-4.477-10-10-10h-10c-5.523,0-10,4.477-10,10v225.462l-34.393-34.393c-1.876-1.875-4.419-2.929-7.071-2.929
            c-2.652,0-5.196,1.054-7.071,2.929l-7.072,7.071c-3.904,3.905-3.904,10.237,0,14.142l63.536,63.536
            c1.953,1.953,4.512,2.929,7.071,2.929c2.559,0,5.119-0.976,7.071-2.929l63.536-63.536
            C302.195,227.113,302.195,220.781,298.29,216.877z"/></g><g></g><g></g><g></g><g></g><g></g><g></g><g></g><g></g><g></g><g></g><g></g><g></g><g></g><g></g><g></g>
    </symbol>
    <symbol viewBox="0 0 247.46 247.46" x="0px" y="0px" class="icon icon-filter" id="icon-filter">
        <path d="M246.744,13.984c-1.238-2.626-3.881-4.301-6.784-4.301H7.5c-2.903,0-5.545,1.675-6.784,4.301
        c-1.238,2.626-0.85,5.73,0.997,7.97l89.361,108.384v99.94c0,2.595,1.341,5.005,3.545,6.373c1.208,0.749,2.579,1.127,3.955,1.127
        c1.137,0,2.278-0.259,3.33-0.78l50.208-24.885c2.551-1.264,4.165-3.863,4.169-6.71l0.098-75.062l89.366-108.388
        C247.593,19.714,247.982,16.609,246.744,13.984z M143.097,122.873c-1.105,1.34-1.711,3.023-1.713,4.761l-0.096,73.103
        l-35.213,17.453v-90.546c0-1.741-0.605-3.428-1.713-4.771L23.404,24.682h200.651L143.097,122.873z"/><g></g><g></g><g></g><g></g><g></g><g></g><g></g><g></g><g></g><g></g><g></g><g></g><g></g><g></g><g></g>
    </symbol>
    <symbol viewBox="0 0 448 512" class="icon icon-fire" id="icon-fire">
        <path fill="currentColor" d="M323.56 51.2c-20.8 19.3-39.58 39.59-56.22 59.97C240.08 73.62 206.28 35.53 168 0 69.74 91.17 0 209.96 0 281.6 0 408.85 100.29 512 224 512s224-103.15 224-230.4c0-53.27-51.98-163.14-124.44-230.4zm-19.47 340.65C282.43 407.01 255.72 416 226.86 416 154.71 416 96 368.26 96 290.75c0-38.61 24.31-72.63 72.79-130.75 6.93 7.98 98.83 125.34 98.83 125.34l58.63-66.88c4.14 6.85 7.91 13.55 11.27 19.97 27.35 52.19 15.81 118.97-33.43 153.42z"/>
    </symbol>
    <symbol viewBox="0 0 320 512" class="icon icon-sort-up" id="icon-sort-up">
        <path d="M279 224H41c-21.4 0-32.1-25.9-17-41L143 64c9.4-9.4 24.6-9.4 33.9 0l119 119c15.2 15.1 4.5 41-16.9 41z"></path>
    </symbol>
    <symbol viewBox="0 0 320 512" class="icon icon-sort-down" id="icon-sort-down">
        <path d="M41 288h238c21.4 0 32.1 25.9 17 41L177 448c-9.4 9.4-24.6 9.4-33.9 0L24 329c-15.1-15.1-4.4-41 17-41z"></path>
    </symbol>
    <!-- <symbol viewBox="0 0 576 512" class="icon icon-eye" id="icon-eye">
        <path d="M288 144a110.94 110.94 0 0 0-31.24 5 55.4 55.4 0 0 1 7.24 27 56 56 0 0 1-56 56 55.4 55.4 0 0 1-27-7.24A111.71 111.71 0 1 0 288 144zm284.52 97.4C518.29 135.59 410.93 64 288 64S57.68 135.64 3.48 241.41a32.35 32.35 0 0 0 0 29.19C57.71 376.41 165.07 448 288 448s230.32-71.64 284.52-177.41a32.35 32.35 0 0 0 0-29.19zM288 400c-98.65 0-189.09-55-237.93-144C98.91 167 189.34 112 288 112s189.09 55 237.93 144C477.1 345 386.66 400 288 400z"></path>
    </symbol> -->
    <symbol viewBox="0 0 576 512" class="icon icon-eye" id="icon-eye">
      <path d="M508.745,246.041c-4.574-6.257-113.557-153.206-252.748-153.206S7.818,239.784,3.249,246.035
        c-4.332,5.936-4.332,13.987,0,19.923c4.569,6.257,113.557,153.206,252.748,153.206s248.174-146.95,252.748-153.201
        C513.083,260.028,513.083,251.971,508.745,246.041z M255.997,385.406c-102.529,0-191.33-97.533-217.617-129.418
        c26.253-31.913,114.868-129.395,217.617-129.395c102.524,0,191.319,97.516,217.617,129.418
        C447.361,287.923,358.746,385.406,255.997,385.406z"></path>
      <path d="M255.997,154.725c-55.842,0-101.275,45.433-101.275,101.275s45.433,101.275,101.275,101.275
        s101.275-45.433,101.275-101.275S311.839,154.725,255.997,154.725z M255.997,323.516c-37.23,0-67.516-30.287-67.516-67.516
        s30.287-67.516,67.516-67.516s67.516,30.287,67.516,67.516S293.227,323.516,255.997,323.516z"></path>
    </symbol>
    <symbol viewBox="0 0 512 512" class="icon icon-shield" id="icon-shield">
        <path d="M466.5 83.7l-192-80a48.15 48.15 0 0 0-36.9 0l-192 80C27.7 91.1 16 108.6 16 128c0 198.5 114.5 335.7 221.5 380.3 11.8 4.9 25.1 4.9 36.9 0C360.1 472.6 496 349.3 496 128c0-19.4-11.7-36.9-29.5-44.3zM256.1 446.3l-.1-381 175.9 73.3c-3.3 151.4-82.1 261.1-175.8 307.7z"></path>
    </symbol>
    <symbol viewBox="0 0 576 512" class="icon icon-edit" id="icon-edit">
        <path d="M402.3 344.9l32-32c5-5 13.7-1.5 13.7 5.7V464c0 26.5-21.5 48-48 48H48c-26.5 0-48-21.5-48-48V112c0-26.5 21.5-48 48-48h273.5c7.1 0 10.7 8.6 5.7 13.7l-32 32c-1.5 1.5-3.5 2.3-5.7 2.3H48v352h352V350.5c0-2.1.8-4.1 2.3-5.6zm156.6-201.8L296.3 405.7l-90.4 10c-26.2 2.9-48.5-19.2-45.6-45.6l10-90.4L432.9 17.1c22.9-22.9 59.9-22.9 82.7 0l43.2 43.2c22.9 22.9 22.9 60 .1 82.8zM460.1 174L402 115.9 216.2 301.8l-7.3 65.3 65.3-7.3L460.1 174zm64.8-79.7l-43.2-43.2c-4.1-4.1-10.8-4.1-14.8 0L436 82l58.1 58.1 30.9-30.9c4-4.2 4-10.8-.1-14.9z"></path>
    </symbol>
    <symbol viewBox="0 0 469.331 469.331" class="icon icon-edit1" id="icon-edit1">
        <g>
        <path d="M438.931,30.403c-40.4-40.5-106.1-40.5-146.5,0l-268.6,268.5c-2.1,2.1-3.4,4.8-3.8,7.7l-19.9,147.4   c-0.6,4.2,0.9,8.4,3.8,11.3c2.5,2.5,6,4,9.5,4c0.6,0,1.2,0,1.8-0.1l88.8-12c7.4-1,12.6-7.8,11.6-15.2c-1-7.4-7.8-12.6-15.2-11.6   l-71.2,9.6l13.9-102.8l108.2,108.2c2.5,2.5,6,4,9.5,4s7-1.4,9.5-4l268.6-268.5c19.6-19.6,30.4-45.6,30.4-73.3   S458.531,49.903,438.931,30.403z M297.631,63.403l45.1,45.1l-245.1,245.1l-45.1-45.1L297.631,63.403z M160.931,416.803l-44.1-44.1   l245.1-245.1l44.1,44.1L160.931,416.803z M424.831,152.403l-107.9-107.9c13.7-11.3,30.8-17.5,48.8-17.5c20.5,0,39.7,8,54.2,22.4   s22.4,33.7,22.4,54.2C442.331,121.703,436.131,138.703,424.831,152.403z"/>
        </g><g></g><g></g><g></g><g></g><g></g><g></g><g></g><g></g><g></g><g></g><g></g><g></g><g></g><g></g><g></g>
    </symbol>
    <symbol viewBox="0 0 20 20" class="icon icon-spinner" id="icon-spinner">
        <path d="M7.229 1.173a9.25 9.25 0 1 0 11.655 11.412 1.25 1.25 0 1 0-2.4-.698 6.75 6.75 0 1 1-8.506-8.329 1.25 1.25 0 1 0-.75-2.385z" fill="#919EAB"/>
    </symbol>
    <symbol viewBox="0 0 512 512" class="icon icon-play" id="icon-play">
        <g><g><path d="M256,0C114.608,0,0,114.608,0,256s114.608,256,256,256s256-114.608,256-256S397.392,0,256,0z M256,496
                    C123.664,496,16,388.336,16,256S123.664,16,256,16s240,107.664,240,240S388.336,496,256,496z"/></g></g>
        <g><g><polygon points="189.776,141.328 189.776,370.992 388.672,256.16"/></g></g><g></g><g></g><g></g><g></g><g></g><g></g><g></g><g></g><g></g><g></g><g></g><g></g><g></g><g></g><g></g>
    </symbol>
    <symbol viewBox="0 0 1000 1000" class="icon icon-arrow-left" id="icon-arrow-left">
        <g><g transform="matrix(1 0 0 -1 0 1008)"><path d="M10,508l233.8,233.8l27-27L81.9,526H990v-36H81.9l188.8-188.8l-27-27L10,508z"/></g></g>
    </symbol>
    <symbol viewBox="0 0 1000 1000" class="icon icon-arrow-right" id="icon-arrow-right">
        <g><g transform="matrix(1 0 0 -1 0 1008)"><path d="M756.2,741.8L990,508L756.2,274.2l-27,27L918.1,490H10v36h908.1L729.3,714.8L756.2,741.8z"/></g></g>
    </symbol>
    <symbol viewBox="0 0 120 120" class="icon icon-question" id="icon-question">
       <g><path d="M64.1,93.3H53.7c-1.7,0-3.1,1.5-3.1,3.1v10.4c0,1.7,1.5,3.1,3.1,3.1h10.4c1.7,0,3.1-1.5,3.1-3.1V96.4   C67.3,94.8,65.8,93.3,64.1,93.3z"/><path d="M92.2,42c-0.6-17.3-14.8-31.4-32-32c-9.1-0.2-17.7,3.1-24.3,9.4c-5.6,5.6-9.1,12.7-10,20.6c-0.2,1.9,1.2,3.3,3.1,3.3h10.4   c1.7,0,2.9-1,3.1-2.3c0.4-3.5,2.1-6.7,4.8-9.1c3.3-3.1,7.7-4.8,12.3-4.6c12.5,0.4,22,15.4,11.6,27.9c-1.9,2.1-4.2,3.5-6.7,4.4   C56.2,62.3,50.6,70.2,50.6,79v3.1c0,1.7,1.2,2.9,2.9,2.9h10.4c1.7,0,3.3-1.2,3.3-3.1v-3.1c0-1.9,1.2-3.3,3.1-4.2   C83.9,69.6,92.8,56.5,92.2,42z"/></g>
    </symbol>
    <symbol viewBox="0 0 22 24" class="icon icon-double-arrow-right" id="icon-double-arrow-right">
        <path d="M1.821 22.676c-.134.151-.301.227-.485.227s-.351-.076-.485-.227a.849.849 0 0 1 0-1.097l8.529-9.647L.851 2.285c-.268-.303-.268-.794 0-1.097s.702-.303.97 0l9.031 10.196a.849.849 0 0 1 0 1.097L1.821 22.677z"></path>
        <path d="M12.061 22.676c-.134.151-.301.227-.485.227s-.351-.076-.485-.227a.849.849 0 0 1 0-1.097l8.529-9.647-8.529-9.647c-.268-.303-.268-.794 0-1.097s.702-.303.97 0l9.031 10.196a.849.849 0 0 1 0 1.097l-9.031 10.196z"></path>
    </symbol>
    <symbol viewBox="0 0 25 24" class="icon icon-expand" id="icon-expand">
        <path d="M6.836 2.266a.632.632 0 0 0 0-1.264H1.635a.632.632 0 0 0-.632.632v5.201a.632.632 0 0 0 1.264 0v-4.57h4.57z"></path>
        <path d="M1.188 2.081L13.077 13.97a.63.63 0 1 0 .893-.893L2.081 1.188a.63.63 0 1 0-.893.893z"></path>
        <path d="M10.106 2.8h11.368a3.158 3.158 0 0 1 3.158 3.158v14.253a3.158 3.158 0 0 1-3.158 3.158H7.173a3.158 3.158 0 0 1-3.158-3.158v-7.98h1.263v7.98c0 1.046.848 1.895 1.895 1.895h14.301a1.895 1.895 0 0 0 1.895-1.895V5.958a1.895 1.895 0 0 0-1.895-1.895H10.106V2.8z"></path>
    </symbol>
    <symbol viewBox="0 0 512 512" x="0px" y="0px" class="icon icon-nopicture" id="icon-nopicture">
        <g transform="translate(1 1)"><g><g>
            <path d="M255-1C114.2-1-1,114.2-1,255s115.2,256,256,256s256-115.2,256-256S395.8-1,255-1z M255,16.067
            c63.054,0,120.598,24.764,163.413,65.033l-65.336,64.802L334.36,97.987c-0.853-2.56-4.267-5.12-7.68-5.12H185.027
            c-3.413,0-5.973,1.707-7.68,5.12L156.013,152.6h-48.64c-17.067,0-30.72,13.653-30.72,30.72v168.96
            c0,17.067,13.653,30.72,30.72,30.72h6.653l-34.26,33.981C40.285,374.319,16.067,317.354,16.067,255
            C16.067,123.587,123.587,16.067,255,16.067z M314.733,255c0,33.28-26.453,59.733-59.733,59.733
            c-13.563,0-25.99-4.396-35.957-11.854l84.125-83.438C310.449,229.34,314.733,241.616,314.733,255z M195.267,255
            c0-33.28,26.453-59.733,59.733-59.733c13.665,0,26.174,4.467,36.179,12.028l-84.183,83.495
            C199.613,280.852,195.267,268.487,195.267,255z M303.374,195.199C290.201,184.558,273.399,178.2,255,178.2
            c-42.667,0-76.8,34.133-76.8,76.8c0,18.17,6.206,34.779,16.61,47.877l-63.576,63.057H106.52c-7.68,0-13.653-5.973-13.653-13.653
            V183.32c0-7.68,5.973-13.653,13.653-13.653h54.613c3.413,0,6.827-2.56,7.68-5.12l21.333-54.613h129.707l19.404,49.675
            L303.374,195.199z M206.848,314.974C219.987,325.509,236.703,331.8,255,331.8c42.667,0,76.8-34.133,76.8-76.8
            c0-18.068-6.138-34.592-16.436-47.655l37.988-37.678h49.274c7.68,0,13.653,5.973,13.653,13.653v168.96
            c0,7.68-5.973,13.653-13.653,13.653H155.469L206.848,314.974z M255,493.933c-62.954,0-120.415-24.686-163.208-64.843L138.262,383
            H403.48c17.067,0,30.72-13.653,31.573-30.72V183.32c0-17.067-13.653-30.72-30.72-30.72H370.56l59.865-59.376
            c39.368,42.639,63.509,99.521,63.509,161.776C493.933,386.413,386.413,493.933,255,493.933z"/>
            <path d="M383,186.733c-9.387,0-17.067,7.68-17.067,17.067c0,9.387,7.68,17.067,17.067,17.067s17.067-7.68,17.067-17.067
            C400.067,194.413,392.387,186.733,383,186.733z"/></g></g></g><g></g><g></g><g></g><g></g><g></g><g></g><g></g><g></g><g></g><g></g><g></g><g></g><g></g><g></g><g></g>
    </symbol>
    <symbol viewBox="0 0 467.968 467.968" class="icon icon-camera" id="icon-camera">
        <g><g><path d="M264.704,96.512H51.2c-28.16,0-51.2,23.04-51.2,51.2v172.544c0,28.16,23.04,51.2,51.2,51.2h213.504
                c28.16,0,51.2-23.04,51.2-51.2V147.712C315.904,119.04,292.864,96.512,264.704,96.512z"/></g></g>
        <g><g><path d="M430.08,124.672c-3.072,0.512-6.144,2.048-8.704,3.584l-79.872,46.08V293.12l80.384,46.08
                c14.848,8.704,33.28,3.584,41.984-11.264c2.56-4.608,4.096-9.728,4.096-15.36V154.368
                C467.968,135.424,450.048,120.064,430.08,124.672z"/>
        </g></g><g></g><g></g><g></g><g></g><g></g><g></g><g></g><g></g><g></g><g></g><g></g><g></g><g></g><g></g><g></g>
    </symbol>

    <symbol viewBox="0 0 306 306" class="icon icon-star" id="icon-star">
        <polygon points="153,230.775 247.35,299.625 211.65,187.425 306,121.125 191.25,121.125 153,6.375 114.75,121.125 0,121.125 94.35,187.425 58.65,299.625 "></polygon> 
    </symbol>
    <symbol viewBox="0 0 496 512" class="icon icon-globe" id="icon-globe">
        <path fill="currentColor" d="M248 8C111.03 8 0 119.03 0 256s111.03 248 248 248 248-111.03 248-248S384.97 8 248 8zm82.29 357.6c-3.9 3.88-7.99 7.95-11.31 11.28-2.99 3-5.1 6.7-6.17 10.71-1.51 5.66-2.73 11.38-4.77 16.87l-17.39 46.85c-13.76 3-28 4.69-42.65 4.69v-27.38c1.69-12.62-7.64-36.26-22.63-51.25-6-6-9.37-14.14-9.37-22.63v-32.01c0-11.64-6.27-22.34-16.46-27.97-14.37-7.95-34.81-19.06-48.81-26.11-11.48-5.78-22.1-13.14-31.65-21.75l-.8-.72a114.792 114.792 0 0 1-18.06-20.74c-9.38-13.77-24.66-36.42-34.59-51.14 20.47-45.5 57.36-82.04 103.2-101.89l24.01 12.01C203.48 89.74 216 82.01 216 70.11v-11.3c7.99-1.29 16.12-2.11 24.39-2.42l28.3 28.3c6.25 6.25 6.25 16.38 0 22.63L264 112l-10.34 10.34c-3.12 3.12-3.12 8.19 0 11.31l4.69 4.69c3.12 3.12 3.12 8.19 0 11.31l-8 8a8.008 8.008 0 0 1-5.66 2.34h-8.99c-2.08 0-4.08.81-5.58 2.27l-9.92 9.65a8.008 8.008 0 0 0-1.58 9.31l15.59 31.19c2.66 5.32-1.21 11.58-7.15 11.58h-5.64c-1.93 0-3.79-.7-5.24-1.96l-9.28-8.06a16.017 16.017 0 0 0-15.55-3.1l-31.17 10.39a11.95 11.95 0 0 0-8.17 11.34c0 4.53 2.56 8.66 6.61 10.69l11.08 5.54c9.41 4.71 19.79 7.16 30.31 7.16s22.59 27.29 32 32h66.75c8.49 0 16.62 3.37 22.63 9.37l13.69 13.69a30.503 30.503 0 0 1 8.93 21.57 46.536 46.536 0 0 1-13.72 32.98zM417 274.25c-5.79-1.45-10.84-5-14.15-9.97l-17.98-26.97a23.97 23.97 0 0 1 0-26.62l19.59-29.38c2.32-3.47 5.5-6.29 9.24-8.15l12.98-6.49C440.2 193.59 448 223.87 448 256c0 8.67-.74 17.16-1.82 25.54L417 274.25z"></path>
    </symbol>
    <symbol viewBox="0 0 512 512" class="icon icon-gift" id="icon-gift">
        <path fill="currentColor" d="M32 448c0 17.7 14.3 32 32 32h160V320H32v128zm256 32h160c17.7 0 32-14.3 32-32V320H288v160zm192-320h-42.1c6.2-12.1 10.1-25.5 10.1-40 0-48.5-39.5-88-88-88-41.6 0-68.5 21.3-103 68.3-34.5-47-61.4-68.3-103-68.3-48.5 0-88 39.5-88 88 0 14.5 3.8 27.9 10.1 40H32c-17.7 0-32 14.3-32 32v80c0 8.8 7.2 16 16 16h480c8.8 0 16-7.2 16-16v-80c0-17.7-14.3-32-32-32zm-326.1 0c-22.1 0-40-17.9-40-40s17.9-40 40-40c19.9 0 34.6 3.3 86.1 80h-86.1zm206.1 0h-86.1c51.4-76.5 65.7-80 86.1-80 22.1 0 40 17.9 40 40s-17.9 40-40 40z"></path> 
    </symbol>

    <symbol viewBox="0 0 512 512" class="icon icon-bell" id="icon-bell" width="16" height="14">
        <path d="m450.201 407.453c-1.505-.977-12.832-8.912-24.174-32.917-20.829-44.082-25.201-106.18-25.201-150.511 0-.193-.004-.384-.011-.576-.227-58.589-35.31-109.095-85.514-131.756v-34.657c0-31.45-25.544-57.036-56.942-57.036h-4.719c-31.398 0-56.942 25.586-56.942 57.036v34.655c-50.372 22.734-85.525 73.498-85.525 132.334 0 44.331-4.372 106.428-25.201 150.511-11.341 24.004-22.668 31.939-24.174 32.917-6.342 2.935-9.469 9.715-8.01 16.586 1.473 6.939 7.959 11.723 15.042 11.723h109.947c.614 42.141 35.008 76.238 77.223 76.238s76.609-34.097 77.223-76.238h109.947c7.082 0 13.569-4.784 15.042-11.723 1.457-6.871-1.669-13.652-8.011-16.586zm-223.502-350.417c0-14.881 12.086-26.987 26.942-26.987h4.719c14.856 0 26.942 12.106 26.942 26.987v24.917c-9.468-1.957-19.269-2.987-29.306-2.987-10.034 0-19.832 1.029-29.296 2.984v-24.914zm29.301 424.915c-25.673 0-46.614-20.617-47.223-46.188h94.445c-.608 25.57-21.549 46.188-47.222 46.188zm60.4-76.239c-.003 0-213.385 0-213.385 0 2.595-4.044 5.236-8.623 7.861-13.798 20.104-39.643 30.298-96.129 30.298-167.889 0-63.417 51.509-115.01 114.821-115.01s114.821 51.593 114.821 115.06c0 .185.003.369.01.553.057 71.472 10.25 127.755 30.298 167.286 2.625 5.176 5.267 9.754 7.861 13.798z"/>
    </symbol>

    <symbol viewBox="0 0 341.333 341.333" class="icon icon-grid" id="icon-grid">
        <g><g><g>
        <rect x="128" y="128" width="85.333" height="85.333"></rect>
        <rect x="0" y="0" width="85.333" height="85.333"></rect>
        <rect x="128" y="256" width="85.333" height="85.333"></rect>
        <rect x="0" y="128" width="85.333" height="85.333"></rect>
        <rect x="0" y="256" width="85.333" height="85.333"></rect>
        <rect x="256" y="0" width="85.333" height="85.333"></rect>
        <rect x="128" y="0" width="85.333" height="85.333"></rect>
        <rect x="256" y="128" width="85.333" height="85.333"></rect>
        <rect x="256" y="256" width="85.333" height="85.333"></rect>
        </g></g>
        </g>
    </symbol>

    <symbol viewBox="0 0 477.867 477.867" class="icon icon-print" id="icon-print">
        <g>
            <g>
                <path d="M460.8,119.467h-85.333v-102.4C375.467,7.641,367.826,0,358.4,0H119.467C110.041,0,102.4,7.641,102.4,17.067v102.4H17.067    C7.641,119.467,0,127.108,0,136.533V358.4c0,9.426,7.641,17.067,17.067,17.067H102.4V460.8c0,9.426,7.641,17.067,17.067,17.067    H358.4c9.426,0,17.067-7.641,17.067-17.067v-85.333H460.8c9.426,0,17.067-7.641,17.067-17.067V136.533    C477.867,127.108,470.226,119.467,460.8,119.467z M136.533,34.133h204.8v85.333h-204.8V34.133z M341.333,443.733h-204.8v-153.6    h204.8V443.733z M443.733,341.333h-68.267v-51.2h17.067c9.426,0,17.067-7.641,17.067-17.067S401.959,256,392.533,256h-307.2    c-9.426,0-17.067,7.641-17.067,17.067s7.641,17.067,17.067,17.067H102.4v51.2H34.133V153.6h409.6V341.333z"/>
            </g>
        </g>
        <g>
            <g>
                <path d="M409.6,187.733h-17.067c-9.426,0-17.067,7.641-17.067,17.067s7.641,17.067,17.067,17.067H409.6    c9.426,0,17.067-7.641,17.067-17.067S419.026,187.733,409.6,187.733z"/>
            </g>
        </g>
        <g>
            <g>
                <path d="M290.133,324.267h-102.4c-9.426,0-17.067,7.641-17.067,17.067s7.641,17.067,17.067,17.067h102.4    c9.426,0,17.067-7.641,17.067-17.067S299.559,324.267,290.133,324.267z"/>
            </g>
        </g>
        <g>
            <g>
                <path d="M290.133,375.467h-102.4c-9.426,0-17.067,7.641-17.067,17.067s7.641,17.067,17.067,17.067h102.4    c9.426,0,17.067-7.641,17.067-17.067S299.559,375.467,290.133,375.467z"/>
            </g></g><g></g><g></g><g></g><g></g><g></g><g></g><g></g><g></g><g></g><g></g><g></g><g></g><g></g><g></g><g></g>
    </symbol>
    <symbol viewBox="0 0 24 24" class="icon icon-ruler" id="icon-ruler">
    <g id="XMLID_1_"><path d="m21.2 8.93.7-.71.35.35c.2.2.2.51 0 .71-.09.1-.22.15-.35.15s-.26-.05-.35-.15z"/><path d="m22.25 9.28-2.12 2.12c.2-.2.2-.51 0-.71l-.35-.35 1.42-1.41.35.35c.09.1.22.15.35.15s.26-.05.35-.15z"/><path d="m20.13 10.69c.2.2.2.51 0 .71-.1.1-.22.15-.35.15s-.26-.05-.36-.15l-.35-.35.71-.71z"/><path d="m19.43 5.74 2.47 2.48-.7.71-2.48-2.48c-.2-.2-.2-.51 0-.71.19-.19.51-.19.71 0z"/><path d="m19.78 11.55c.13 0 .25-.05.35-.15l-2.12 2.12c.19-.19.19-.51 0-.71l-.35-.35 1.41-1.41.35.35c.1.1.23.15.36.15z"/><path d="m19.78 10.34-.71.71-1.06-1.07c-.19-.19-.19-.51 0-.7.19-.2.51-.2.71 0z"/><path d="m17.3 13.52-.35-.35.71-.71.35.35c.19.2.19.52 0 .71-.1.1-.23.15-.35.15-.13 0-.26-.05-.36-.15z"/><path d="m17.66 12.46-.71.71-1.06-1.06c-.2-.2-.2-.52 0-.71.19-.2.51-.2.71 0z"/><path d="m17.66 13.67c.12 0 .25-.05.35-.15l-2.12 2.12c.19-.19.19-.51 0-.7l-.35-.35 1.41-1.42.35.35c.1.1.23.15.36.15z"/><path d="m15.89 14.94c.19.19.19.51 0 .7-.1.1-.23.15-.35.15-.13 0-.26-.05-.36-.15l-.35-.35.71-.7z"/><path d="m15.54 15.79c.12 0 .25-.05.35-.15l-2.12 2.12c.19-.19.19-.51 0-.7l-.35-.35 1.41-1.42.35.35c.1.1.23.15.36.15z"/><path d="m13.77 17.06c.19.19.19.51 0 .7-.1.1-.23.15-.36.15-.12 0-.25-.05-.35-.15l-.35-.35.71-.7z"/><path d="m13.06 12.11 2.48 2.48-.71.7-2.48-2.48c-.19-.19-.19-.51 0-.7.2-.2.52-.2.71 0z"/><path d="m13.77 17.76-2.11 2.11c.18-.2.17-.51-.01-.69l-.35-.35 1.41-1.42.35.35c.1.1.23.15.35.15.13 0 .26-.05.36-.15z"/><path d="m11.65 16.35c-.2-.19-.2-.51 0-.71.19-.19.51-.19.7 0l1.07 1.07-.71.7z"/><path d="m11.65 19.18c.18.18.19.49.01.69l-.03.03c-.1.09-.22.13-.34.13-.13 0-.25-.05-.35-.14l-.35-.35.71-.71z"/><path d="m11.3 18.83-.71.71-1.07-1.07c-.19-.19-.19-.51 0-.71.2-.19.52-.19.71 0z"/><path d="m11.63 19.9-2.11 2.11c.2-.2.2-.52 0-.71l-.35-.35 1.42-1.41.35.35c.1.09.22.14.35.14.12 0 .24-.04.34-.13z"/><path d="m9.52 21.3c.2.19.2.51 0 .71-.09.09-.22.14-.35.14s-.26-.05-.35-.14l-.35-.35.7-.71z"/><path d="m6.7 18.47 2.47 2.48-.7.71-2.48-2.48c-.2-.2-.2-.51 0-.71.19-.19.51-.19.71 0z"/><path d="m7.05 22.36c.19.19.51.19.71 0l.71-.7.35.35c.09.09.22.14.35.14s.26-.05.35-.14l-1.06 1.06c-.29.29-.67.43-1.06.43-.38 0-.76-.14-1.06-.43l-5.65-5.66c-.29-.28-.44-.66-.44-1.06s.15-.78.44-1.06l14.85-14.85c.56-.57 1.55-.57 2.12 0l5.65 5.66c.29.28.44.66.44 1.06s-.15.77-.44 1.06l-1.06 1.06c.2-.2.2-.51 0-.71l-.35-.35.71-.71c.09-.09.14-.22.14-.35 0-.14-.05-.26-.14-.36l-5.66-5.65c-.19-.2-.51-.2-.71 0l-14.85 14.85c-.09.09-.14.22-.14.35s.05.26.14.35z"/></g>
    </symbol>
    <symbol viewBox="0 0 512 512" class="icon icon-loading" id="icon-loading">
        <path fill="currentColor" d="M370.72 133.28C339.458 104.008 298.888 87.962 255.848 88c-77.458.068-144.328 53.178-162.791 126.85-1.344 5.363-6.122 9.15-11.651 9.15H24.103c-7.498 0-13.194-6.807-11.807-14.176C33.933 94.924 134.813 8 256 8c66.448 0 126.791 26.136 171.315 68.685L463.03 40.97C478.149 25.851 504 36.559 504 57.941V192c0 13.255-10.745 24-24 24H345.941c-21.382 0-32.09-25.851-16.971-40.971l41.75-41.749zM32 296h134.059c21.382 0 32.09 25.851 16.971 40.971l-41.75 41.75c31.262 29.273 71.835 45.319 114.876 45.28 77.418-.07 144.315-53.144 162.787-126.849 1.344-5.363 6.122-9.15 11.651-9.15h57.304c7.498 0 13.194 6.807 11.807 14.176C478.067 417.076 377.187 504 256 504c-66.448 0-126.791-26.136-171.315-68.685L48.97 471.03C33.851 486.149 8 475.441 8 454.059V320c0-13.255 10.745-24 24-24z"/>
    </symbol>
    <symbol viewBox="0 0 100 100" class="icon icon-loading-anima" id="icon-loading-anima">
        <g transform="translate(80,50)">
        <g transform="rotate(0)">
        <circle cx="0" cy="0" r="6" fill="#ffffff" fill-opacity="1">
          <animateTransform attributeName="transform" type="scale" begin="-0.875s" values="1.5 1.5;1 1" keyTimes="0;1" dur="1s" repeatCount="indefinite"/>
          <animate attributeName="fill-opacity" keyTimes="0;1" dur="1s" repeatCount="indefinite" values="1;0" begin="-0.875s"/>
        </circle>
        </g>
        </g><g transform="translate(71.21320343559643,71.21320343559643)">
        <g transform="rotate(45)">
        <circle cx="0" cy="0" r="6" fill="#ffffff" fill-opacity="0.875">
          <animateTransform attributeName="transform" type="scale" begin="-0.75s" values="1.5 1.5;1 1" keyTimes="0;1" dur="1s" repeatCount="indefinite"/>
          <animate attributeName="fill-opacity" keyTimes="0;1" dur="1s" repeatCount="indefinite" values="1;0" begin="-0.75s"/>
        </circle>
        </g>
        </g><g transform="translate(50,80)">
        <g transform="rotate(90)">
        <circle cx="0" cy="0" r="6" fill="#ffffff" fill-opacity="0.75">
          <animateTransform attributeName="transform" type="scale" begin="-0.625s" values="1.5 1.5;1 1" keyTimes="0;1" dur="1s" repeatCount="indefinite"/>
          <animate attributeName="fill-opacity" keyTimes="0;1" dur="1s" repeatCount="indefinite" values="1;0" begin="-0.625s"/>
        </circle>
        </g>
        </g><g transform="translate(28.786796564403577,71.21320343559643)">
        <g transform="rotate(135)">
        <circle cx="0" cy="0" r="6" fill="#ffffff" fill-opacity="0.625">
          <animateTransform attributeName="transform" type="scale" begin="-0.5s" values="1.5 1.5;1 1" keyTimes="0;1" dur="1s" repeatCount="indefinite"/>
          <animate attributeName="fill-opacity" keyTimes="0;1" dur="1s" repeatCount="indefinite" values="1;0" begin="-0.5s"/>
        </circle>
        </g>
        </g><g transform="translate(20,50.00000000000001)">
        <g transform="rotate(180)">
        <circle cx="0" cy="0" r="6" fill="#ffffff" fill-opacity="0.5">
          <animateTransform attributeName="transform" type="scale" begin="-0.375s" values="1.5 1.5;1 1" keyTimes="0;1" dur="1s" repeatCount="indefinite"/>
          <animate attributeName="fill-opacity" keyTimes="0;1" dur="1s" repeatCount="indefinite" values="1;0" begin="-0.375s"/>
        </circle>
        </g>
        </g><g transform="translate(28.78679656440357,28.786796564403577)">
        <g transform="rotate(225)">
        <circle cx="0" cy="0" r="6" fill="#ffffff" fill-opacity="0.375">
          <animateTransform attributeName="transform" type="scale" begin="-0.25s" values="1.5 1.5;1 1" keyTimes="0;1" dur="1s" repeatCount="indefinite"/>
          <animate attributeName="fill-opacity" keyTimes="0;1" dur="1s" repeatCount="indefinite" values="1;0" begin="-0.25s"/>
        </circle>
        </g>
        </g><g transform="translate(49.99999999999999,20)">
        <g transform="rotate(270)">
        <circle cx="0" cy="0" r="6" fill="#ffffff" fill-opacity="0.25">
          <animateTransform attributeName="transform" type="scale" begin="-0.125s" values="1.5 1.5;1 1" keyTimes="0;1" dur="1s" repeatCount="indefinite"/>
          <animate attributeName="fill-opacity" keyTimes="0;1" dur="1s" repeatCount="indefinite" values="1;0" begin="-0.125s"/>
        </circle>
        </g>
        </g><g transform="translate(71.21320343559643,28.78679656440357)">
        <g transform="rotate(315)">
        <circle cx="0" cy="0" r="6" fill="#ffffff" fill-opacity="0.125">
          <animateTransform attributeName="transform" type="scale" begin="0s" values="1.5 1.5;1 1" keyTimes="0;1" dur="1s" repeatCount="indefinite"/>
          <animate attributeName="fill-opacity" keyTimes="0;1" dur="1s" repeatCount="indefinite" values="1;0" begin="0s"/>
        </circle>
        </g>
        </g>
    </symbol>
    <symbol viewBox="0 0 448 512" class="icon icon-remove" id="icon-remove">
        <path fill="currentColor" d="M268 416h24a12 12 0 0 0 12-12V188a12 12 0 0 0-12-12h-24a12 12 0 0 0-12 12v216a12 12 0 0 0 12 12zM432 80h-82.41l-34-56.7A48 48 0 0 0 274.41 0H173.59a48 48 0 0 0-41.16 23.3L98.41 80H16A16 16 0 0 0 0 96v16a16 16 0 0 0 16 16h16v336a48 48 0 0 0 48 48h288a48 48 0 0 0 48-48V128h16a16 16 0 0 0 16-16V96a16 16 0 0 0-16-16zM171.84 50.91A6 6 0 0 1 177 48h94a6 6 0 0 1 5.15 2.91L293.61 80H154.39zM368 464H80V128h288zm-212-48h24a12 12 0 0 0 12-12V188a12 12 0 0 0-12-12h-24a12 12 0 0 0-12 12v216a12 12 0 0 0 12 12z"/>
    </symbol>
    <symbol viewBox="0 0 512 512" class="icon icon-search_plus" id="icon-search_plus">
        <path fill="currentColor" d="M304 192v32c0 6.6-5.4 12-12 12h-56v56c0 6.6-5.4 12-12 12h-32c-6.6 0-12-5.4-12-12v-56h-56c-6.6 0-12-5.4-12-12v-32c0-6.6 5.4-12 12-12h56v-56c0-6.6 5.4-12 12-12h32c6.6 0 12 5.4 12 12v56h56c6.6 0 12 5.4 12 12zm201 284.7L476.7 505c-9.4 9.4-24.6 9.4-33.9 0L343 405.3c-4.5-4.5-7-10.6-7-17V372c-35.3 27.6-79.7 44-128 44C93.1 416 0 322.9 0 208S93.1 0 208 0s208 93.1 208 208c0 48.3-16.4 92.7-44 128h16.3c6.4 0 12.5 2.5 17 7l99.7 99.7c9.3 9.4 9.3 24.6 0 34zM344 208c0-75.2-60.8-136-136-136S72 132.8 72 208s60.8 136 136 136 136-60.8 136-136z"></path>
    </symbol>
</svg>